<?xml version="1.0" encoding="UTF-8" standalone="no"?>
<svg
   xmlns:dc="http://purl.org/dc/elements/1.1/"
   xmlns:cc="http://creativecommons.org/ns#"
   xmlns:rdf="http://www.w3.org/1999/02/22-rdf-syntax-ns#"
   xmlns:svg="http://www.w3.org/2000/svg"
   xmlns="http://www.w3.org/2000/svg"
   viewBox="0 0 648.75 801.90002"
   height="801.90002"
   width="648.75"
   xml:space="preserve"
   version="1.1"
   id="svg2"><metadata
     id="metadata8"><rdf:RDF><cc:Work
         rdf:about=""><dc:format>image/svg+xml</dc:format><dc:type
           rdf:resource="http://purl.org/dc/dcmitype/StillImage" /></cc:Work></rdf:RDF></metadata><defs
     id="defs6" /><g
     transform="matrix(1.25,0,0,-1.25,0,801.9)"
     id="g10"><g
       transform="scale(0.1,0.1)"
       id="g12"><path
         id="path14"
         style="fill:#a3781e;fill-opacity:1;fill-rule:nonzero;stroke:none"
         d="m 1893.33,2138.58 336.672,0 0,2546.67 -336.672,0 0,-2546.67 z" /><path
         id="path16"
         style="fill:#a3781e;fill-opacity:1;fill-rule:nonzero;stroke:none"
         d="m 2958.33,1775.25 336.668,0 0,2085 -336.668,0 0,-2085 z" /><path
         id="path18"
         style="fill:#a3781e;fill-opacity:1;fill-rule:nonzero;stroke:none"
         d="m 2795.05,1295.25 180,0 0,336.672 -180,0 0,-336.672 z" /><path
         id="path20"
         style="fill:#a3781e;fill-opacity:1;fill-rule:nonzero;stroke:none"
         d="m 2596.25,4685.25 348.8,0 -398.14,-1347.43 -322.71,95.94 372.05,1251.49" /><path
         id="path22"
         style="fill:#a3781e;fill-opacity:1;fill-rule:nonzero;stroke:none"
         d="m 2546.91,3539.71 -322.71,-95.94 387.83,-1304.57 352.77,-0.62 0,0 -417.89,1401.13" /><path
         id="path24"
         style="fill:#a3781e;fill-opacity:1;fill-rule:nonzero;stroke:none"
         d="m 2795.05,1631.92 90,0 c 0,0 38.28,0 54.95,24.16 17.23,10.86 18.33,61.67 18.33,61.67 l 0,57.5 336.67,0 c 0,0 0,-206.67 0,-223.33 0,-16.67 1.9,-55.86 -22.5,-107.65 -17.88,-37.96 -20.64,-40.53 -45,-69.02 -14.6,-17.07 -44.64,-39.72 -65,-52.5 -35.83,-22.5 -90,-27.5 -102.5,-27.5 -12.5,0 -84.95,0 -84.95,0 l -180,0 0,336.67" /><path
         id="path26"
         style="fill:#a3781e;fill-opacity:1;fill-rule:nonzero;stroke:none"
         d="m 0,0.25 115,0 0,960 -115,0 0,-960 z" /><path
         id="path28"
         style="fill:#a3781e;fill-opacity:1;fill-rule:nonzero;stroke:none"
         d="m 1065,0.25 115,0 0,960 -115,0 0,-960 z" /><path
         id="path30"
         style="fill:#a3781e;fill-opacity:1;fill-rule:nonzero;stroke:none"
         d="m 1065,0.25 357.5,0 0,115 -357.5,0 0,-115 z" /><path
         id="path32"
         style="fill:#a3781e;fill-opacity:1;fill-rule:nonzero;stroke:none"
         d="m 1065,845.25 357.5,0 0,115 -357.5,0 0,-115 z" /><path
         id="path34"
         style="fill:#a3781e;fill-opacity:1;fill-rule:nonzero;stroke:none"
         d="m 1065,422.75 357.5,0 0,115 -357.5,0 0,-115 z" /><path
         id="path36"
         style="fill:#a3781e;fill-opacity:1;fill-rule:nonzero;stroke:none"
         d="m 3930,422.75 210.039,0 0,115 -210.039,0 0,-115 z" /><path
         id="path38"
         style="fill:#a3781e;fill-opacity:1;fill-rule:nonzero;stroke:none"
         d="m 2940.04,0.25 115,0 0,960 -115,0 0,-960 z" /><path
         id="path40"
         style="fill:#a3781e;fill-opacity:1;fill-rule:nonzero;stroke:none"
         d="m 2332.38,326.141 -102.6,-51.95 -187.94,371.168 102.59,51.95 187.95,-371.168" /><path
         id="path42"
         style="fill:#a3781e;fill-opacity:1;fill-rule:nonzero;stroke:none"
         d="m 4025.04,57.75 115,0 0,480 -115,0 0,-480 z" /><path
         id="path44"
         style="fill:#a3781e;fill-opacity:1;fill-rule:nonzero;stroke:none"
         d="m 4760.04,0.25 115,0 0,960 -115,0 0,-960 z" /><path
         id="path46"
         style="fill:#a3781e;fill-opacity:1;fill-rule:nonzero;stroke:none"
         d="m 5075.04,0.25 115,0 0,960 -115,0 0,-960 z" /><path
         id="path48"
         style="fill:#a3781e;fill-opacity:1;fill-rule:nonzero;stroke:none"
         d="M 5184.77,36.7891 5075.73,0.25 4766.37,923.531 4875.41,960.059 5184.77,36.7891" /><path
         id="path50"
         style="fill:none;stroke:#a3781e;stroke-width:110;stroke-linecap:butt;stroke-linejoin:miter;stroke-miterlimit:10;stroke-dasharray:none;stroke-opacity:1"
         d="m 393.75,456.5 c 0,134.82 -16.602,326.441 -81.508,387.461 -64.902,61.031 -154.648,61.031 -224.1443,61.031" /><path
         id="path52"
         style="fill:none;stroke:#a3781e;stroke-width:110;stroke-linecap:butt;stroke-linejoin:miter;stroke-miterlimit:10;stroke-dasharray:none;stroke-opacity:1"
         d="M 393.75,503.398 C 393.75,368.629 377.148,177.09 312.242,116.09 247.34,55.0898 157.594,55.0898 88.0977,55.0898" /><path
         id="path54"
         style="fill:none;stroke:#a3781e;stroke-width:110;stroke-linecap:butt;stroke-linejoin:miter;stroke-miterlimit:10;stroke-dasharray:none;stroke-opacity:1"
         d="m 3729.39,503.488 c 0,-134.816 16.6,-326.437 81.51,-387.457 C 3875.8,55 3965.55,55 4035.04,55" /><path
         id="path56"
         style="fill:none;stroke:#a3781e;stroke-width:110;stroke-linecap:butt;stroke-linejoin:miter;stroke-miterlimit:10;stroke-dasharray:none;stroke-opacity:1"
         d="m 3729.39,462.75 c 0,134.82 16.6,326.441 81.51,387.461 41.07,38.617 92.09,52.801 141.64,58.008" /><path
         id="path58"
         style="fill:none;stroke:#a3781e;stroke-width:110;stroke-linecap:butt;stroke-linejoin:miter;stroke-miterlimit:10;stroke-dasharray:none;stroke-opacity:1"
         d="m 4104.97,875.07 c -41.06,22.078 -85.11,33.149 -145.58,33.149" /><path
         id="path60"
         style="fill:#a3781e;fill-opacity:1;fill-rule:nonzero;stroke:none"
         d="m 4130.63,923.582 9.41,-6.461 0,-134.371 c 0.02,0.012 -15.35,13.832 -31.5,25.422 -12.69,9.098 -27.64,17 -35.41,21.617 -7.71,4.59 -16.23,7.109 -16.23,7.109 l 73.73,86.684" /><path
         id="path62"
         style="fill:#a3781e;fill-opacity:1;fill-rule:nonzero;stroke:none"
         d="m 3952.54,963.172 c 17.25,0 15.79,0 15.79,0 l -1.66,-110 c -1.7,-0.16 -3.75,-0.063 -12.09,0 -8.74,0.058 -16.25,-2.09 -16.25,-2.09 l -30.41,105.84 c 0,0 27.36,6.25 44.62,6.25" /><path
         id="path64"
         style="fill:#a3781e;fill-opacity:1;fill-rule:nonzero;stroke:none"
         d="m 4140.04,57.7891 c 0,0 -25.89,-25.9571 -44.32,-37.3203 C 4060.78,-1.07031 4031.25,0.25 4031.25,0.25 l 0,60.832 108.79,-3.2929" /><path
         id="path66"
         style="fill:#a3781e;fill-opacity:1;fill-rule:nonzero;stroke:none"
         d="m 2278.33,966.922 c -43.08,15 -86.66,9.976 -128.33,-0.43 -21.62,-5.402 -58.5,-27.91 -83.33,-53.742 -24.83,-25.828 -39.01,-64.359 -44.17,-88.551 -5.56,-26.051 -10.83,-48.949 -4.17,-106.449 3.14,-18.77 23.51,-72.391 23.51,-72.391 l 102.59,51.95 c 0,0 -8.57,15.703 -13.27,36.832 -4.22,18.949 -0.53,62.781 5.22,76.109 4.83,11.18 17.84,32.969 27.79,40 9.9,7 33.71,15.949 45.83,15.832 23.48,-0.223 54.76,-6.832 75.01,-16.113 20.26,-9.289 28.32,-11.387 28.32,-11.387 l 0,117.5" /><path
         id="path68"
         style="fill:#a3781e;fill-opacity:1;fill-rule:nonzero;stroke:none"
         d="m 2093.48,9.67188 c 43.09,-15.00001 86.67,-9.980474 128.34,0.42972 21.61,5.3867 58.5,27.9101 83.33,53.7382 24.83,25.8321 39.01,64.3592 44.17,88.5512 5.55,26.05 10.83,48.949 4.16,106.449 -3.13,18.769 -23.5,72.39 -23.5,72.39 l -102.59,-51.949 c 0,0 8.57,-15.699 13.27,-36.832 4.22,-18.949 0.53,-62.789 -5.22,-76.109 -4.83,-11.18 -17.85,-32.969 -27.79,-40 -9.9,-7 -33.71,-15.949 -45.83,-15.828 -23.48,0.218 -54.76,6.828 -75.02,16.109 -20.25,9.289 -28.32,11.391 -28.32,11.391 l 0,-117.5003" /></g></g></svg>